<?xml version="1.0" encoding="UTF-8"?>
<svg width="1000" height="1000" viewBox="0 0 1000 1000" fill="none" xmlns="http://www.w3.org/2000/svg">
    <path d="M625.2 554.9c-47.3 34.9-116 53.6-175.2 53.6-82.9 0-157.6-30.7-214.2-81.8-4.4-4-0.4-9.4 4.8-6.3 60.6 35.2 135.6 56.4 213 56.4 52.2 0 109.6-10.8 162.4-33.2 8-3.4 14.6 5.2 9.2 11.3z" fill="currentColor"/>
    <path d="M650.9 525.7c-6-7.7-40-3.7-55.2-1.9-4.6 0.6-5.3-3.5-1.2-6.4 27-19 71.3-13.5 76.5-7.2 5.2 6.4-1.4 50.4-26.5 71.4-3.9 3.2-7.5 1.5-5.8-2.8 5.6-14 18.2-45.3 12.2-53.1z" fill="currentColor"/>
    <path d="M583.6 342.6v-30.7c0-4.7 3.5-7.7 7.7-7.7h137c4.4 0 7.9 3.1 7.9 7.7v26.3c0 4.4-3.7 10.1-10.3 19.1l-70.9 101.2c26.3-0.6 54.1 3.3 78 16.7 5.4 3 6.8 7.4 7.2 11.7v32.7c0 4.4-4.8 9.5-9.9 6.8-41.4-21.7-96.4-24.1-142.2 0.2-4.7 2.5-9.5-2.5-9.5-6.9v-31.1c0-4.8 0.1-13.1 4.9-20.5l82.1-117.7h-71.5c-4.4 0-7.9-3.1-7.9-7.7l-3.6-3.8z" fill="currentColor"/>
    <path d="M205 625.9c-71.3 52.4-174.7 80.4-263.6 80.4-124.8 0-237.1-46.1-322.1-122.8-6.7-6-0.7-14.2 7.3-9.5 91.2 53 203.6 84.8 320.1 84.8 78.5 0 164.8-16.3 244.2-49.9 12-5.1 22 7.8 13.9 16.9l0.2 0.1z" fill="currentColor"/>
</svg> 
