<?xml version="1.0" encoding="UTF-8"?>
<svg width="814" height="1000" viewBox="0 0 814 1000" fill="none" xmlns="http://www.w3.org/2000/svg">
    <path d="M788.1 345.6c-1.8-129.3-57.2-244.3-147.6-320.7-51.7-43.8-102.9-63.7-131.4-69.7-55.7-11.6-109.3-11.6-155.7-0.5-41.5 10.1-78.2 27.8-110.1 53-31.9 25.2-57.2 54.7-75.9 88.6-18.7 33.9-31.4 75.9-38.3 125.9-6.9 50-6.9 100.1 0 150.2 6.9 50.1 20.1 93.1 39.8 129.3 19.6 36.2 45.4 66.7 77.3 91.9 31.9 25.2 68.6 43.3 110.1 54.2 46.4 11.6 100 12.1 155.7 0.5 28.5-6 79.7-25.9 131.4-69.7 90.4-76.4 145.8-191.4 147.6-320.7l-2.9-112.3z" fill="currentColor"/>
</svg> 
