<?xml version="1.0" encoding="UTF-8"?>
<svg width="1000" height="1000" viewBox="0 0 1000 1000" fill="none" xmlns="http://www.w3.org/2000/svg">
    <path d="M924.3 215.7c-5.7-21.7-22.4-38.4-44.1-44.1-38.9-10.4-194.8-10.4-194.8-10.4s-155.9 0-194.8 10.4c-21.7 5.7-38.4 22.4-44.1 44.1-10.4 38.9-10.4 120.1-10.4 120.1s0 81.2 10.4 120.1c5.7 21.7 22.4 38.4 44.1 44.1 38.9 10.4 194.8 10.4 194.8 10.4s155.9 0 194.8-10.4c21.7-5.7 38.4-22.4 44.1-44.1 10.4-38.9 10.4-120.1 10.4-120.1s0-81.2-10.4-120.1zM553.9 335.8v79.9l129.9-39.9-129.9-40z" fill="currentColor"/>
    <path d="M75.7 215.7c5.7-21.7 22.4-38.4 44.1-44.1 38.9-10.4 194.8-10.4 194.8-10.4s155.9 0 194.8 10.4c21.7 5.7 38.4 22.4 44.1 44.1 10.4 38.9 10.4 120.1 10.4 120.1s0 81.2-10.4 120.1c-5.7 21.7-22.4 38.4-44.1 44.1-38.9 10.4-194.8 10.4-194.8 10.4s-155.9 0-194.8-10.4c-21.7-5.7-38.4-22.4-44.1-44.1C65.3 417 65.3 335.8 65.3 335.8s0-81.2 10.4-120.1zM446.1 335.8v79.9L316.2 375.7l129.9-39.9z" fill="currentColor"/>
</svg> 
