<?xml version="1.0" encoding="UTF-8"?>
<svg width="1000" height="1000" viewBox="0 0 1000 1000" fill="none" xmlns="http://www.w3.org/2000/svg">
    <path d="M775.5 500c0-151.9-123.6-275.5-275.5-275.5s-275.5 123.6-275.5 275.5 123.6 275.5 275.5 275.5 275.5-123.6 275.5-275.5zm-275.5 225.5c-124.3 0-225.5-101.2-225.5-225.5s101.2-225.5 225.5-225.5 225.5 101.2 225.5 225.5-101.2 225.5-225.5 225.5z" fill="currentColor"/>
    <path d="M500 324.5c-96.9 0-175.5 78.6-175.5 175.5s78.6 175.5 175.5 175.5 175.5-78.6 175.5-175.5-78.6-175.5-175.5-175.5zm0 300.5c-68.9 0-125-56.1-125-125s56.1-125 125-125 125 56.1 125 125-56.1 125-125 125z" fill="currentColor"/>
    <path d="M500 424.5c-41.4 0-75.5 34.1-75.5 75.5s34.1 75.5 75.5 75.5 75.5-34.1 75.5-75.5-34.1-75.5-75.5-75.5z" fill="currentColor"/>
</svg> 
