<?xml version="1.0" encoding="UTF-8"?>
<svg width="1000" height="1000" viewBox="0 0 1000 1000" fill="none" xmlns="http://www.w3.org/2000/svg">
    <path d="M499.8 50c-89.6 111.6-153.6 225.4-192.8 332.8-3.2 8.8-6.2 17.6-9.2 26.4h404c-3-8.8-6-17.6-9.2-26.4-39.2-107.4-103.2-221.2-192.8-332.8zm.2-50l16.6 19.6c98.8 116.8 169.2 239.2 211.8 356.4 4 11 7.8 21.8 11.4 33.2h52.8l10 50h-605.6l10-50h52.8c3.6-11.4 7.4-22.4 11.4-33.2 42.6-117.2 113-239.6 211.8-356.4l16.6-19.6zm-250 950v-491.2h500v491.2h-50v-441.2h-400v441.2h-50z" fill="currentColor"/>
</svg> 
